<svg xmlns="http://www.w3.org/2000/svg" viewBox="0 0 32 32"><circle cx="16" cy="16" r="15" fill="#eef5fd"/><path fill="#d7e2f2" d="M2.38,17.5A15,15,0,0,1,27.72,6.67,15,15,0,1,0,5.65,26.83,14.92,14.92,0,0,1,2.38,17.5Z"/><path fill="#96d7ff" d="M16,31a15,15,0,0,0,11-4.83v-.39h0a11,11,0,0,0-21.91-1h0l-.06,1v.39A15,15,0,0,0,16,31Z"/><path fill="#86c3ef" d="M6.13,27v-.4l.07-.95h0a11.06,11.06,0,0,1,10.93-9.83,10.79,10.79,0,0,1,5.77,1.68A10.91,10.91,0,0,0,16,15,11.05,11.05,0,0,0,5.08,24.83h0l-.06,1v.39a15.3,15.3,0,0,0,3,2.47A16.22,16.22,0,0,1,6.13,27Z"/><circle cx="16" cy="12" r="7" fill="#ff9797"/><path fill="#e47979" d="M10,12.75A7,7,0,0,1,20.67,6.8,7,7,0,1,0,12.33,18,7,7,0,0,1,10,12.75Z"/><path fill="#d7e2f2" d="M30.2,20.8a6.69,6.69,0,1,0-9.4,9.4A15.09,15.09,0,0,0,30.2,20.8Z"/><path fill="#86c3ef" d="M23.91,18.41A6.68,6.68,0,0,0,20.8,30.2a15.07,15.07,0,0,0,6.19-4v-.39h0A11,11,0,0,0,23.91,18.41Z"/><circle cx="25" cy="25" r="6" fill="#ffc661"/><path fill="#e49f4e" d="M19.75,25.5a6,6,0,0,1,8.92-5.24,6,6,0,1,0-6.59,10A6,6,0,0,1,19.75,25.5Z"/><path fill="#e49f4e" d="M27.21,24.09h-1v-1a1,1,0,1,0-2,0v1h-1a1,1,0,0,0,0,2h1v1a1,1,0,0,0,2,0v-1h1a1,1,0,0,0,0-2Z"/><path fill="#eef5fd" d="M27,23.88H26v-1a1,1,0,1,0-2,0v1H23a1,1,0,0,0,0,2h1v1a1,1,0,0,0,2,0v-1h1a1,1,0,0,0,0-2Z"/><path fill="#d7e2f2" d="M22.21,25.09a1,1,0,0,1,1-1h1v-1a1,1,0,0,1,1-1,1,1,0,0,1,.58.21,1,1,0,0,0-.79-.42,1,1,0,0,0-1,1v1H23a1,1,0,0,0-1,1,1,1,0,0,0,.42.79A1,1,0,0,1,22.21,25.09Z"/></svg>