<svg viewBox="0 0 512 512" xml:space="preserve" xmlns="http://www.w3.org/2000/svg"><path d="M470.023 353.127a54.318 54.318 0 0 0-19.596-12.566V194.875c0-5.216-4.268-9.485-9.484-9.485s-9.486 4.269-9.486 9.485v142.278c-5.502 0-11 .842-16.299 2.496v-98.533c0-5.217-4.27-9.485-9.486-9.485-2.758 0-5.242 1.2-6.979 3.095v-63.682c0-7.108-5.816-12.924-12.924-12.924-.359 0-.715.025-1.066.055v-37.109c0-5.217-4.27-9.485-9.486-9.485s-9.484 4.269-9.484 9.485v240.848a42.848 42.848 0 0 0-15.006 19.898 24.715 24.715 0 0 0-.33-2.229V192.385c0-7.108-5.816-12.924-12.924-12.924s-12.924 5.815-12.924 12.924v168.704a23.02 23.02 0 0 0-15.202 8.857c-.053-.382-.094-.763-.156-1.146-4.131-25.458-28.119-42.746-53.577-38.615-18.157 2.946-32.151 15.996-37.19 32.473-5.03-10.191-15.521-17.203-27.655-17.203a30.663 30.663 0 0 0-15.413 4.13v-116.77c0-9.129-7.47-16.599-16.599-16.599-9.13 0-16.599 7.47-16.599 16.599v133.894a30.81 30.81 0 0 0-4.607 1.032 54.651 54.651 0 0 0-7.811-9.871 55.185 55.185 0 0 0-2.924-2.698v-165.04c0-5.217-4.269-9.485-9.485-9.485s-9.485 4.269-9.485 9.485v154.379a54.632 54.632 0 0 0-14.299-2.559v-105.58c0-5.217-4.269-9.485-9.485-9.485s-9.485 4.269-9.485 9.485v108.115a54.292 54.292 0 0 0-21.966 13.383c-21.299 21.3-21.299 55.832 0 77.131 21.299 21.3 55.832 21.3 77.131 0a54.794 54.794 0 0 0 7.014-8.596 30.763 30.763 0 0 0 9.881 1.628c.046 0 .091-.005.138-.006 3.028 3.172 7.281 5.164 11.984 5.164 1.737 0 3.413-.274 4.99-.775 20.67 6.297 50.687 10.26 84.095 10.26 37.3 0 70.37-4.939 90.929-12.553a23.021 23.021 0 0 0 15.195 5.704c4.824 0 9.301-1.478 13.006-4.004 9.119 6.147 20.592 8.794 32.229 6.467.959-.192 1.9-.425 2.83-.678 21.113 13.558 49.523 11.114 67.992-7.354 21.297-21.299 21.297-55.831-.002-77.131z" fill="#5AA096" class="fill-5aa096"></path><ellipse cx="261.316" cy="445.641" fill="#2F485E" rx="161.248" ry="23.12" class="fill-2f485e"></ellipse><path d="M470.023 353.127a54.318 54.318 0 0 0-19.596-12.566V194.875c0-5.216-4.268-9.485-9.484-9.485s-9.486 4.269-9.486 9.485v142.278c-5.502 0-11 .842-16.299 2.496v-98.533c0-5.217-4.27-9.485-9.486-9.485-5.215 0-9.484 4.269-9.484 9.485V350.11a54.826 54.826 0 0 0-3.295 3.017c-.215.214-.412.438-.621.653a42.586 42.586 0 0 0-7.568.415V121.064c0-5.217-4.27-9.485-9.486-9.485s-9.484 4.269-9.484 9.485v240.848a42.848 42.848 0 0 0-15.006 19.898 23.825 23.825 0 0 0-.461-2.92c-2.814-12.455-15.193-20.271-27.648-17.456a23.02 23.02 0 0 0-13.27 8.511c-.053-.382-.094-.763-.156-1.146-4.131-25.458-28.119-42.746-53.577-38.615-18.157 2.946-32.151 15.996-37.19 32.473-5.03-10.191-15.521-17.203-27.655-17.203-14.783 0-27.13 10.408-30.127 24.295a30.693 30.693 0 0 0-14.007-3.369c-3.162 0-6.212.479-9.084 1.362a54.651 54.651 0 0 0-7.811-9.871 55.185 55.185 0 0 0-2.924-2.698v-165.04c0-5.217-4.269-9.485-9.485-9.485s-9.485 4.269-9.485 9.485v154.379a54.632 54.632 0 0 0-14.299-2.559v-105.58c0-5.217-4.269-9.485-9.485-9.485s-9.485 4.269-9.485 9.485v108.115a54.292 54.292 0 0 0-21.966 13.383c-21.299 21.3-21.299 55.832 0 77.131 21.299 21.3 55.832 21.3 77.131 0a54.794 54.794 0 0 0 7.014-8.596 30.763 30.763 0 0 0 14.276 1.311c19.747 8.964 55.713 14.96 96.813 14.96 37.3 0 70.37-4.939 90.929-12.553a23.021 23.021 0 0 0 15.195 5.704c4.824 0 9.301-1.478 13.006-4.004 9.119 6.147 20.592 8.794 32.229 6.467.959-.192 1.9-.425 2.83-.678 21.113 13.558 49.523 11.114 67.992-7.354 21.294-21.3 21.294-55.832-.005-77.132z" fill="#466C6F" class="fill-466c6f"></path><path fill="#FF7143" d="M279.375 306.554H243.26l-8.934 101.249h53.981z" class="fill-ff7143"></path><path fill="#FFD800" d="m252.254 306.554-7.397 101.249h32.918l-7.396-101.249z" class="fill-ffd800"></path><path fill="#52C9D5" d="M239.976 289.914h42.683v16.64h-42.683z" class="fill-52c9d5"></path><path fill="#52C9D5" d="M239.976 289.914h42.683v16.64h-42.683z" class="fill-52c9d5"></path><path fill="#dddddd" d="M240.101 318.129h-33.279l5.842-40.652 18.032-28.799h9.405z" class="fill-dddddd"></path><path fill="#C6C6C6" d="M282.533 318.129h33.278l-5.842-40.652-18.031-28.799h-9.405z" class="fill-c6c6c6"></path><path d="M261.361 30.2v-.003l-.045.001-.045-.001v.003c-23.332.09-42.231 74.63-42.231 135.282 0 36.209 8.134 100.243 20.256 124.432H283.336c12.123-24.189 20.258-88.223 20.258-124.432 0-60.652-18.901-135.192-42.233-135.282z" fill="#F4F4F4" class="fill-f4f4f4"></path><circle cx="261.317" cy="174.222" fill="#52C9D5" r="25.506" class="fill-52c9d5"></circle><circle cx="261.316" cy="174.222" fill="#fcf9f9" r="17.57" class="fill-ffffff"></circle><path fill="#52C9D5" d="M239.976 289.914h42.683v16.64h-42.683zM261.316 30.199l-.045-.001v.002c-17.46.067-32.437 41.827-38.87 88.258h77.829c-6.432-46.432-21.408-88.191-38.869-88.258v-.003l-.045.002z" class="fill-52c9d5"></path><path fill="#49BAC0" d="M261.551 289.914h21.107v16.64h-21.107z" class="fill-49bac0"></path><path d="M261.551 30.21v259.704h21.785c12.123-24.189 20.258-88.223 20.258-124.432 0-60.488-18.799-134.782-42.043-135.272z" fill="#E0E0E0" class="fill-e0e0e0"></path><path d="M261.551 148.723v50.999c13.977-.126 25.271-11.492 25.271-25.5s-11.295-25.373-25.271-25.499z" fill="#49BAC0" class="fill-49bac0"></path><path d="M261.551 156.663v35.117c9.594-.126 17.336-7.934 17.336-17.559s-7.742-17.431-17.336-17.558z" fill="#F4F4F4" class="fill-f4f4f4"></path><path d="M261.551 118.458h38.68c-6.41-46.265-21.301-87.885-38.68-88.251v88.251z" fill="#49BAC0" class="fill-49bac0"></path><circle cx="25.076" cy="450.976" fill="#466C6F" r="9.485" class="fill-466c6f"></circle><circle cx="158.312" cy="326.781" fill="#466C6F" r="18.97" class="fill-466c6f"></circle><circle cx="370.102" cy="466.39" fill="#466C6F" r="9.485" class="fill-466c6f"></circle><circle cx="200.134" cy="390.561" fill="#5AA096" r="12.814" class="fill-5aa096"></circle><circle cx="266.986" cy="412.156" fill="#5AA096" r="6.828" class="fill-5aa096"></circle><circle cx="72.994" cy="409.854" fill="#66B2B2" r="9.485" class="fill-66b2b2"></circle><circle cx="459.606" cy="409.232" fill="#66B2B2" r="9.486" class="fill-66b2b2"></circle><circle cx="320.383" cy="405.124" fill="#5AA096" r="16.006" class="fill-5aa096"></circle><path d="M445.982 424.892a26.11 26.11 0 0 0-7.139.997c.01-.332.025-.662.025-.997 0-18.99-15.395-34.384-34.385-34.384-18.988 0-34.383 15.394-34.383 34.384 0 18.989 15.395 34.384 34.383 34.384a34.234 34.234 0 0 0 15.801-3.848c2.113 12.283 12.811 21.633 25.697 21.633 14.406 0 26.084-11.679 26.084-26.085s-11.676-26.084-26.083-26.084z" fill="#5AA096" class="fill-5aa096"></path><circle cx="211.224" cy="462.832" fill="#5AA096" r="18.971" class="fill-5aa096"></circle><path d="M164.339 414.839c-7.408-7.408-19.419-7.408-26.828 0a18.992 18.992 0 0 0-3.333 4.503c-7.359-6.02-17.16-8.981-27.282-7.339-18.745 3.042-31.474 20.704-28.432 39.448 3.042 18.744 20.703 31.474 39.448 28.432 16.619-2.697 28.5-16.889 28.863-33.135 6.126 1.368 12.797-.313 17.564-5.081 7.409-7.408 7.409-19.419 0-26.828z" fill="#5AA096" class="fill-5aa096"></path><path fill="#FFD326" d="m170.606 118.445 5.193 10.521 11.61 1.687-8.401 8.189 1.983 11.564-10.385-5.46-10.385 5.46 1.984-11.564-8.402-8.189 11.611-1.687zM479.605 248.445l5.194 10.521 11.609 1.686-8.4 8.19 1.982 11.564-10.385-5.46-10.384 5.46 1.984-11.564-8.402-8.19 11.611-1.686zM34.606 279.445l5.193 10.521 11.61 1.686-8.401 8.19 1.983 11.564-10.385-5.46-10.385 5.46 1.984-11.564-8.402-8.19 11.611-1.686z" class="fill-ffd326"></path></svg>